:SAMPLES-PER-SECOND 24
:FULLY-SPECIFIED
:DEGREES
411
root  -10.4696 38.7736 -39.4936 139.076 -77.4418 -137.053
RightUpLeg  -18.284 -1.53122 2.59373
RightLeg  24.4573 -2.75709 -1.59315
RightFoot  -5.71841 -0.146613 2.19327
RightToes  -2.09809e-008 3.77894e-005 6.81332e-007
Spine  -0.415701 -3.16112 -0.266346
Spine1  8.17228 -4.69954 6.13785
HEad  -25.8163 -48.4683 14.4654
LeftShoulder1  6.79348 -12.6798 -35.9375
LeftArm  0.973752 26.5015 -36.9227
LeftForeArm  163.139 -74.8027 -143.617
LeftHand  -0.305752 -1.82008 5.10238
RightShoulder  3.10472 5.42534 28.8388
RightArm  9.14366 -8.71332 36.5791
RightForeArm  145.083 76.5038 135.116
RightHand  -0.368031 8.8767 -3.37608
LeftUpLeg  -22.0939 15.2809 10.802
LeftLeg  62.619 -0.0571428 0.515662
LeftFoot  -8.06399 0.402067 -12.3349
LeftToes  1.24773e-006 1.46318e-008 1.32523e-009
412
root  -10.8588 39.1784 -38.9889 149.336 -76.4517 -146.565
RightUpLeg  -16.8199 1.44555 0.362062
RightLeg  20.0705 -3.20956 -1.52085
RightFoot  -3.61172 -0.360663 4.96768
RightToes  -2.09809e-008 3.77894e-005 6.81332e-007
Spine  -1.0295 -3.60449 -2.43116
Spine1  7.59161 -5.49678 7.87251
HEad  -24.7024 -47.2257 13.9767
LeftShoulder1  6.69335 -12.6021 -35.5276
LeftArm  2.64323 25.8131 -38.0831
LeftForeArm  163.416 -73.633 -146.28
LeftHand  -0.366349 -1.85726 6.05176
RightShoulder  3.13151 5.44741 29.0579
RightArm  8.63499 -12.2048 36.3296
RightForeArm  150.739 74.6224 141.803
RightHand  -0.409533 8.96672 -3.69427
LeftUpLeg  -23.3076 11.0217 12.2049
LeftLeg  60.992 0.0287502 0.649673
LeftFoot  -9.97501 0.207301 -12.3203
LeftToes  1.24773e-006 1.46318e-008 1.32523e-009
413
root  -11.2358 39.4277 -38.3601 159.23 -74.5149 -155.467
RightUpLeg  -16.0306 2.31315 -1.66546
RightLeg  15.9522 -1.33777 -1.06947
RightFoot  -2.0131 -0.561109 6.71632
RightToes  -2.09809e-008 3.77894e-005 6.81332e-007
Spine  -2.0199 -4.10857 -4.36437
Spine1  6.88252 -6.24262 9.71064
HEad  -22.9358 -45.1918 12.3777
LeftShoulder1  6.53886 -12.4832 -34.8824
LeftArm  5.4076 25.2788 -37.3795
LeftForeArm  166.685 -72.02 -149.835
LeftHand  -0.365172 -2.36591 5.6801
RightShoulder  3.12834 5.483 28.8791
RightArm  8.70148 -16.2857 35.6263
RightForeArm  155.481 73.5254 145.183
RightHand  -0.360379 9.45341 -3.20945
LeftUpLeg  -22.9187 5.72934 14.439
LeftLeg  55.9581 1.52785 2.92338
LeftFoot  -10.0067 0.18078 -10.613
LeftToes  1.24773e-006 1.46318e-008 1.32523e-009
414
root  -11.5763 39.433 -37.6267 166.915 -70.9283 -162.732
RightUpLeg  -15.8147 1.45575 -3.07238
RightLeg  13.2263 3.30161 -0.624512
RightFoot  -1.77546 -0.726677 8.52152
RightToes  -2.09809e-008 3.77894e-005 6.81332e-007
Spine  -2.16295 -4.13102 -4.92858
Spine1  5.45263 -6.08753 9.91161
HEad  -21.227 -42.9499 10.816
LeftShoulder1  6.3291 -12.3571 -33.8973
LeftArm  8.37823 24.1783 -35.5703
LeftForeArm  169.43 -70.5705 -152.505
LeftHand  -0.287608 -2.72155 4.33794
RightShoulder  3.10371 5.4806 28.6075
RightArm  9.586 -19.9458 34.1572
RightForeArm  156.087 73.0346 146.3
RightHand  -0.271192 9.4367 -2.51536
LeftUpLeg  -20.0493 -0.647754 17.0384
LeftLeg  48.8143 3.81428 5.0603
LeftFoot  -10.7687 0.105664 -8.00009
LeftToes  1.24773e-006 1.46318e-008 1.32523e-009
415
root  -11.8459 39.1499 -36.7394 171.174 -65.338 -167.225
RightUpLeg  -17.2136 3.77386 -4.54159
RightLeg  13.7156 6.42955 -0.108126
RightFoot  -2.13063 -0.989863 12.0658
RightToes  -2.09809e-008 3.77894e-005 6.81332e-007
Spine  -1.77655 -3.63314 -4.22345
Spine1  4.57749 -5.25778 8.88895
HEad  -20.4815 -40.0606 9.80679
LeftShoulder1  6.21252 -12.2843 -33.3479
LeftArm  10.9539 21.945 -33.1417
LeftForeArm  169.691 -69.3336 -154.236
LeftHand  -0.25906 -2.59166 3.98399
RightShoulder  3.00657 5.37294 27.9117
RightArm  9.98224 -21.5305 33.0199
RightForeArm  154.353 73.4853 145.074
RightHand  -0.220928 9.36297 -2.13179
LeftUpLeg  -15.2431 -8.58892 18.9805
LeftLeg  42.0741 3.94308 4.19788
LeftFoot  -13.5857 -0.0524954 -6.82227
LeftToes  1.24773e-006 1.46318e-008 1.32523e-009
416
root  -12.0619 38.6206 -35.615 173.017 -59.4495 -169.363
RightUpLeg  -20.419 9.94273 -7.09271
RightLeg  16.5317 6.25118 0.985428
RightFoot  -2.85911 -1.08073 14.2382
RightToes  -2.09809e-008 3.77894e-005 6.81332e-007
Spine  -1.4284 -3.61838 -3.01484
Spine1  4.73849 -4.97176 7.69835
HEad  -20.1675 -36.1274 9.38736
LeftShoulder1  6.19132 -12.2037 -33.4148
LeftArm  12.4716 19.153 -30.568
LeftForeArm  169.718 -68.3305 -155.482
LeftHand  -0.302618 -2.32852 4.75523
RightShoulder  2.96832 5.36028 27.5151
RightArm  8.71525 -21.7655 32.8168
RightForeArm  152.248 74.6587 141.981
RightHand  -0.277766 9.38185 -2.57437
LeftUpLeg  -11.0288 -17.9704 19.0887
LeftLeg  39.1643 -0.148586 0.22486
LeftFoot  -16.8817 -0.293264 -8.09532
LeftToes  1.24773e-006 1.46318e-008 1.32523e-009
417
root  -12.2812 38.0294 -34.2416 173.982 -55.1518 -170.423
RightUpLeg  -23.7448 14.9862 -10.2951
RightLeg  18.3916 5.42041 1.72539
RightFoot  -3.19143 -1.12555 15.4245
RightToes  -2.09809e-008 3.77894e-005 6.81332e-007
Spine  -1.1694 -4.4665 -2.47287
Spine1  5.28288 -5.73173 7.16284
HEad  -19.8173 -32.2372 9.47787
LeftShoulder1  6.37394 -12.3286 -34.2502
LeftArm  12.8196 15.5869 -28.3531
LeftForeArm  169.252 -68.6181 -155.08
LeftHand  -0.33936 -2.3914 5.27188
RightShoulder  3.07086 5.50273 28.1433
RightArm  5.56369 -23.2205 32.959
RightForeArm  149.827 75.414 139.504
RightHand  -0.392551 9.07313 -3.53491
LeftUpLeg  -8.96516 -25.8076 17.2542
LeftLeg  40.6922 -4.68135 -3.94908
LeftFoot  -20.3389 -0.677576 -10.1078
LeftToes  1.24773e-006 1.46318e-008 1.32523e-009
418
root  -12.4951 37.5839 -32.656 175.238 -52.2218 -171.569
RightUpLeg  -25.5824 17.3075 -13.5273
RightLeg  16.8281 5.28934 1.12978
RightFoot  -1.62956 -1.59498 18.4353
RightToes  -2.09809e-008 3.77894e-005 6.81332e-007
Spine  -1.52149 -5.61473 -4.07819
Spine1  6.66271 -7.28339 8.39137
HEad  -20.0486 -28.8338 9.69861
LeftShoulder1  6.77841 -12.744 -35.6811
LeftArm  12.5297 10.4964 -27.7187
LeftForeArm  166.349 -70.7061 -151.875
LeftHand  -0.352281 -2.46358 5.41996
RightShoulder  3.17556 5.60356 28.9374
RightArm  1.08564 -25.9274 33.5057
RightForeArm  148.149 75.5179 138.871
RightHand  -0.528086 8.35712 -4.82975
LeftUpLeg  -8.9174 -28.3827 14.1445
LeftLeg  43.4546 -4.70606 -4.36158
LeftFoot  -23.9563 -1.0352 -10.6292
LeftToes  1.24773e-006 1.46318e-008 1.32523e-009
419
root  -12.6388 37.2754 -30.8604 177.293 -49.5018 -173.553
RightUpLeg  -25.3044 14.139 -14.5098
RightLeg  11.9421 10.2363 -1.75017
RightFoot  -1.13767 -1.69224 18.712
RightToes  -2.09809e-008 3.77894e-005 6.81332e-007
Spine  -0.778867 -6.58434 -8.24639
Spine1  7.19165 -9.16092 11.9137
HEad  -20.4495 -25.2204 9.61526
LeftShoulder1  7.03734 -13.0239 -36.5221
LeftArm  12.4452 5.24516 -29.2807
LeftForeArm  162.839 -72.7629 -147.92
LeftHand  -0.358401 -2.3415 5.58865
RightShoulder  3.28502 5.70751 29.7506
RightArm  -3.34098 -28.7602 33.943
RightForeArm  148.344 75.2947 139.546
RightHand  -0.699604 7.88026 -6.47194
LeftUpLeg  -10.516 -25.7434 10.1174
LeftLeg  45.3919 -1.26243 -0.951465
LeftFoot  -26.5248 -1.01062 -8.76349
LeftToes  1.24773e-006 1.46318e-008 1.32523e-009
420
root  -12.7379 37.0292 -28.9683 179.349 -46.2412 -175.903
RightUpLeg  -24.0605 4.84118 -12.5642
RightLeg  5.18002 15.7523 -6.52887
RightFoot  -4.90565 -0.75646 12.5411
RightToes  -2.09809e-008 3.77894e-005 6.81332e-007
Spine  0.351237 -7.00536 -13.4475
Spine1  7.99842 -10.8536 16.5374
HEad  -20.8761 -21.5082 9.1992
LeftShoulder1  7.12999 -13.1298 -36.7996
LeftArm  12.4129 0.182455 -31.5274
LeftForeArm  160.317 -73.797 -145.429
LeftHand  -0.364699 -2.37817 5.65919
RightShoulder  3.40213 5.86158 30.4257
RightArm  -7.7489 -31.3145 34.6038
RightForeArm  148.761 75.0776 140.226
RightHand  -0.788214 7.82491 -7.27088
LeftUpLeg  -12.1921 -21.0779 5.8451
LeftLeg  45.9663 1.51625 2.10272
LeftFoot  -27.9032 -0.653915 -5.64267
LeftToes  1.24773e-006 1.46318e-008 1.32523e-009
421
root  -12.891 36.9298 -27.1778 -179.391 -41.5293 -177.366
RightUpLeg  -24.4423 -1.98631 -11.4838
RightLeg  1.17015 7.32023 -7.31098
RightFoot  -8.28731 -0.202588 5.88165
RightToes  -2.09809e-008 3.77894e-005 6.81332e-007
Spine  0.650318 -6.92298 -15.7249
Spine1  8.95082 -11.4213 18.4889
HEad  -20.8867 -18.0814 8.29156
LeftShoulder1  7.21181 -13.1773 -37.1562
LeftArm  12.6237 -3.48758 -32.8375
LeftForeArm  158.957 -74.1735 -144.358
LeftHand  -0.367868 -2.40216 5.69109
RightShoulder  3.49579 5.96847 31.0131
RightArm  -11.0299 -34.0303 35.5438
RightForeArm  148.689 74.9464 140.568
RightHand  -0.74998 7.78182 -6.95643
LeftUpLeg  -12.8226 -16.9851 2.34388
LeftLeg  44.8511 3.6796 4.33328
LeftFoot  -28.9031 -0.344692 -3.35671
LeftToes  1.24773e-006 1.46318e-008 1.32523e-009
422
root  -13.0656 37.1186 -25.4798 -178.667 -34.6393 -177.42
RightUpLeg  -26.8867 -3.88371 -10.8156
RightLeg  2.67209 -9.04549 -4.53353
RightFoot  -6.63702 -0.227161 4.43607
RightToes  -2.09809e-008 3.77894e-005 6.81332e-007
Spine  0.0823035 -6.48229 -14.6212
Spine1  9.85289 -11.0429 18.2754
HEad  -20.3157 -14.0727 6.62806
LeftShoulder1  7.2641 -13.1576 -37.5099
LeftArm  12.6555 -3.92941 -33.6662
LeftForeArm  159.751 -74.2341 -144.36
LeftHand  -0.348028 -2.3319 5.43785
RightShoulder  3.53508 5.9897 31.3479
RightArm  -10.9703 -35.6341 36.1393
RightForeArm  147.877 75.414 139.113
RightHand  -0.702966 7.94283 -6.47237
LeftUpLeg  -13.7142 -13.5693 0.123027
LeftLeg  43.0864 7.12088 7.48625
LeftFoot  -27.9226 -0.168723 -2.30944
LeftToes  1.24773e-006 1.46318e-008 1.32523e-009
